<?xml version="1.0" encoding="UTF-8"?>
<!-- Generator: Adobe Illustrator 28.1.0, SVG Export Plug-In . SVG Version: 6.00 Build 0)  -->
<svg xmlns="http://www.w3.org/2000/svg" xmlns:xlink="http://www.w3.org/1999/xlink" version="1.1" id="Camada_1" x="0px" y="0px" viewBox="0 0 170 170" style="enable-background:new 0 0 170 170;" xml:space="preserve">
<style type="text/css">
	.st0{fill:#E62D2C;}
	.st1{fill:#EC6268;}
	.st2{fill:#FFFFFF;}
</style>
<g id="Layer_1-2">
	<path class="st0" d="M84.5,77.2L83,72.7c-1.2,0.6-2.3,1.1-3.5,1.7l0.1,3.6L84.5,77.2L84.5,77.2z M136.9,123.4h-12.8l-6.8-15.3   l17.2-1.4L136.9,123.4L136.9,123.4z M170,85c0-0.5-0.1-0.9-0.1-1.4c-0.5-5.9-4-28.8-31.1-28.8c-0.6,0-1.2,0-1.9,0   c-3.2,0.1-6.7,0.6-10.3,1.4l7.6,48.4l-18,0.9L98.7,65.6c-1.6,0.7-3.2,1.4-4.8,2.1l28.5,55.7H98.5l-12.1-31l-4.3,0.7l-7.5,30.3   l-22.1,0.3l9.8-41c-2,1-4,1.9-5.9,2.8l-7.8,37.8l-15.3,0.3l-0.2-28c-7.7,2.9-14.5,4.7-19.8,4.7C5,100.4,0,96.1,0,85   c0,46.9,38.1,85,85,85S170,131.9,170,85L170,85L170,85z"/>
	<path class="st1" d="M85,0C38.1,0,0,38.1,0,85c0,11.1,5,15.4,13.4,15.4c5.4,0,12.2-1.8,19.8-4.7L33.1,71l27.2-4.5l-3.9,19   c1.9-0.9,3.9-1.9,5.9-2.8l8.1-34l14.2,1.1l9.2,17.9c1.6-0.7,3.2-1.4,4.8-2.1l-7.9-18l34.3-1.2l1.5,9.8c3.6-0.8,7-1.2,10.3-1.3   c0.6,0,1.3,0,1.9,0C170,54.8,170,85,170,85C170,38.1,131.9,0,85,0L85,0z"/>
	<polygon class="st1" points="63.5,50.4 63.5,50.4 60.9,63.6 33.4,67.5 33.1,52.3 50.7,50.4  "/>
	<path class="st1" d="M81.1,66.9l-1.8,0.3l0.3,7.1c1.2-0.6,2.3-1.1,3.5-1.7L81.1,66.9L81.1,66.9z"/>
	<path class="st2" d="M60.3,66.5L33.1,71l0.3,52.7l15.3-0.3L60.3,66.5L60.3,66.5z M60.9,63.6l2.6-13.3H50.7l-17.6,1.9l0.3,15.3   L60.9,63.6L60.9,63.6z M84.5,77.2l-4.9,0.7l-0.4-10.7l1.8-0.3L84.5,77.2z M122.3,123.4L84.7,49.8l-14.2-1.1l-17.9,75l22.1-0.3   l7.5-30.3l4.3-0.7l12.1,31L122.3,123.4L122.3,123.4z M116.1,105.5l18-0.9l-9.1-58.3l-34.3,1.2L116.1,105.5L116.1,105.5z    M136.9,123.4l-2.4-16.7l-17.2,1.4l6.8,15.3H136.9L136.9,123.4z"/>
</g>
</svg>